# Motion Analysis HTR (source:MACFileLib v1.10)
[Header]
# KeyWord<space>Value<CR>
FileType htr
DataType HTRS
FileVersion 1
NumSegments 39
NumFrames 4
DataFrameRate 30
EulerRotationOrder ZYX
CalibrationUnits mm
RotationUnits Degrees
GlobalAxisofGravity Y
BoneLengthAxis Y
ScaleFactor 1.00
[SegmentNames&Hierarchy]
# ObjectName<tab>ParentObjectName<CR>
Root	GLOBAL
Spine1	Root
Spine2	Spine1
Neck	Spine2
Head	Neck
Shoulder.L	Spine2
UpArm.L	Shoulder.L
LowArm.L	UpArm.L
Hand.L	LowArm.L
Mid1.L	Hand.L
Mid2.L	Mid1.L
Rin1.L	Hand.L
Rin2.L	Rin1.L
Pin1.L	Hand.L
Pin2.L	Pin1.L
Ind1.L	Hand.L
Ind2.L	Ind1.L
Thu1.L	Hand.L
Thu2.L	Thu1.L
Shoulder.R.	Spine2
UpArm.R.	Shoulder.R.
LowArm.R.	UpArm.R.
Hand.R.	LowArm.R.
Mid1.R	Hand.R.
Mid2.R	Mid1.R
Rin1.R	Hand.R.
Rin2.R	Rin1.R
Pin1.R	Hand.R.
Pin2.R	Pin1.R
Ind1.R.	Hand.R.
Ind2.R.	Ind1.R.
Thu1.R.	Hand.R.
Thu2.R.	Thu1.R.
UpLeg.L	Root
LowLeg.L	UpLeg.L
Foot.L	LowLeg.L
UpLeg.R.	Root
LowLeg.R.	UpLeg.R.
Foot.R.	LowLeg.R.
[BasePosition]
# ObjectName<tab>Tx<tab>Ty<tab>Tz<tab>Rx<tab>Ry<tab>Rz<tab>BoneLength<CR>
Root	0.000000	30235.292665	-0.004026	-90.000000	-89.999997	0.000000	312.175059
Spine1	0.000000	0.000000	122.062207	0.019032	-1.455481	-0.016849	3.956297
Spine2	-0.000002	0.000000	198.604268	-0.000000	4.493006	-0.000000	2.586962
Neck	0.000000	-0.000000	247.007825	0.297491	5.478449	0.093257	3.162327
Head	-0.000015	-0.000000	104.775290	-0.175874	-4.060744	-0.705126	1.361036
Shoulder.L	41.010071	27.800332	201.741797	-81.536759	5.008627	15.988888	1.460144
UpArm.L	0.117466	13.316634	134.567362	-82.518406	12.487283	-11.850128	3.412631
LowArm.L	0.000000	0.000000	262.668825	-4.150096	24.611435	0.862810	1.706381
Hand.L	-0.000030	-0.000089	256.182086	1.251665	-2.900481	93.083380	2.469438
Mid1.L	-0.543952	-2.746105	82.554371	5.870870	13.914796	-4.286848	0.442826
Mid2.L	-0.000030	-0.000060	34.084145	-2.990212	7.753196	0.200136	0.174624
Rin1.L	0.218332	13.137847	79.132915	-4.664477	24.296854	-14.091150	0.406978
Rin2.L	0.000000	-0.000030	31.325105	2.538030	18.883424	1.472171	0.162051
Pin1.L	1.118183	25.887013	79.463363	-6.502850	31.389724	-18.797695	0.335416
Pin2.L	0.000030	-0.000030	25.816920	3.160667	26.641257	2.067333	0.125631
Ind1.L	-1.472771	-18.929660	80.637515	6.366745	19.096025	-8.675468	0.442753
Ind2.L	0.000000	0.000060	34.078602	-3.536158	12.502640	-0.176700	0.165913
Thu1.L	-3.191650	-22.920072	43.290437	37.523714	-1.101658	9.452499	0.336229
Thu2.L	0.000000	0.000060	25.879371	-3.466530	1.879609	0.849762	0.125995
Shoulder.R.	40.633645	-26.530634	213.580709	81.536759	5.008628	-15.988883	1.460144
UpArm.R.	0.117421	-13.316394	134.567334	84.571290	14.995531	8.690877	3.412630
LowArm.R.	-0.000007	0.000000	262.669114	-0.939266	18.147122	3.030276	1.706382
Hand.R.	-0.000030	0.000030	256.182340	-1.251664	-2.900482	-92.883379	2.469439
Mid1.R	-0.543892	2.746134	82.554317	3.492589	17.927377	10.121872	0.442826
Mid2.R	0.000030	0.000000	34.084138	3.005328	12.040916	0.019132	0.174624
Rin1.R	0.218332	-13.137843	79.132833	7.877480	30.421552	15.621419	0.406978
Rin2.R	0.000000	0.000000	31.324974	-2.683059	25.460207	-1.830241	0.162051
Pin1.R	1.118183	-25.887005	79.463281	4.172920	19.025390	10.727662	0.335416
Pin2.R	0.000030	0.000000	25.816910	-2.923828	13.562034	-1.238519	0.125631
Ind1.R.	-1.472711	18.929655	80.637492	5.591351	22.601217	12.022139	0.442753
Ind2.R.	-0.000015	-0.000030	34.078529	3.589268	17.083385	0.564650	0.165912
Thu1.R.	-3.191589	22.920036	43.290424	-35.951129	-3.697876	-10.453265	0.336229
Thu2.R.	0.000119	-0.000060	25.879373	3.463998	0.441911	-1.237030	0.125995
UpLeg.L	0.000000	94.873809	17.299771	174.415787	24.182955	176.946753	4.473357
LowLeg.L	0.000000	-0.000030	344.311944	7.892541	28.364600	0.995591	2.236683
Foot.L	0.000007	0.000015	381.932733	2.940336	52.017118	174.796942	3.535750
UpLeg.R.	0.000000	-93.110353	17.299771	-177.110361	13.831422	178.777684	4.472163
LowLeg.R.	0.000000	-0.000045	344.302351	-6.889827	33.218978	-6.564881	2.236052
Foot.R.	-0.000007	0.000007	381.826393	14.449929	65.920805	-144.561253	3.535786
[Root]
# Tx<tab>Ty<tab>Tz<tab>Rx<tab>Ry<tab>Rz<tab>BoneScaleFactor<CR>
25	-0.300562	-29462.798151	13.831075	0.000000	-0.000000	0.000000	0.025400
26	-0.292391	-29462.921012	12.595715	0.000000	-0.000000	0.000000	0.025400
27	-0.284220	-29463.043872	11.264383	0.000000	-0.000000	0.000000	0.025400
28	-0.261490	-29463.385518	9.867422	0.000000	-0.000000	0.000000	0.025400
[Spine1]
# Tx<tab>Ty<tab>Tz<tab>Rx<tab>Ry<tab>Rz<tab>BoneScaleFactor<CR>
25	-0.000001	0.000000	0.000000	0.000000	-0.000000	0.000000	1.000000
26	0.000000	0.000000	0.000000	0.000000	-0.000000	0.000000	1.000000
27	0.000000	0.000000	0.000000	0.000000	-0.000000	0.000000	1.000000
28	0.000000	0.000000	0.000000	0.000000	-0.000000	0.000000	1.000000
[Spine2]
# Tx<tab>Ty<tab>Tz<tab>Rx<tab>Ry<tab>Rz<tab>BoneScaleFactor<CR>
25	0.000002	-0.000000	0.000119	0.000474	-1.988328	0.000678	1.000000
26	-0.000002	-0.000000	0.000000	0.000466	-1.810684	0.000617	1.000000
27	-0.000002	-0.000000	0.000060	0.000424	-1.619238	0.000554	1.000000
28	-0.000002	-0.000000	0.000000	0.000372	-1.418350	0.000487	1.000000
[Neck]
# Tx<tab>Ty<tab>Tz<tab>Rx<tab>Ry<tab>Rz<tab>BoneScaleFactor<CR>
25	-0.000002	0.000000	0.000000	0.000000	0.000002	-0.000000	1.000000
26	0.000000	0.000000	0.000000	0.000000	0.000000	-0.000000	1.000000
27	0.000000	0.000000	-0.000119	0.000000	0.000000	-0.000000	1.000000
28	0.000000	0.000000	0.000119	0.000000	0.000002	-0.000000	1.000000
[Head]
# Tx<tab>Ty<tab>Tz<tab>Rx<tab>Ry<tab>Rz<tab>BoneScaleFactor<CR>
25	-0.000015	0.000000	-0.000129	-0.634603	1.738755	0.398439	1.000000
26	0.000000	0.000001	-0.000119	-0.699480	1.723456	0.405923	1.000000
27	-0.000015	0.000000	0.000000	-0.744883	1.707153	0.411140	1.000000
28	-0.000015	0.000000	0.000000	-0.770759	1.689916	0.414131	1.000000
[Shoulder.L]
# Tx<tab>Ty<tab>Tz<tab>Rx<tab>Ry<tab>Rz<tab>BoneScaleFactor<CR>
25	0.000000	-0.000004	0.000000	0.000000	0.000003	0.000001	1.000000
26	-0.000004	-0.000002	0.000000	0.000001	0.000002	0.000003	1.000000
27	0.000000	-0.000006	0.000000	0.000007	-0.000001	-0.000001	1.000000
28	0.000007	-0.000002	0.000000	0.000007	-0.000001	-0.000001	1.000000
[UpArm.L]
# Tx<tab>Ty<tab>Tz<tab>Rx<tab>Ry<tab>Rz<tab>BoneScaleFactor<CR>
25	-0.000000	-0.000120	-0.000013	2.129186	0.109483	0.131782	1.000000
26	-0.000000	0.000117	-0.000026	1.938946	0.099883	0.119825	1.000000
27	-0.000007	-0.000003	-0.000026	1.733919	0.089508	0.106977	1.000000
28	-0.000000	-0.000003	-0.000056	1.518809	0.078571	0.093550	1.000000
[LowArm.L]
# Tx<tab>Ty<tab>Tz<tab>Rx<tab>Ry<tab>Rz<tab>BoneScaleFactor<CR>
25	0.000000	0.000060	0.000051	-0.211672	-1.522380	0.398584	1.000000
26	0.000000	0.000000	0.000051	-0.192253	-1.386432	0.362767	1.000000
27	0.000007	0.000000	0.000170	-0.171549	-1.239892	0.324164	1.000000
28	0.000007	0.000000	-0.000034	-0.149961	-1.086125	0.283704	1.000000
[Hand.L]
# Tx<tab>Ty<tab>Tz<tab>Rx<tab>Ry<tab>Rz<tab>BoneScaleFactor<CR>
25	0.000030	0.000030	0.000050	2.456997	3.391462	5.190147	1.000000
26	0.000030	-0.000030	0.000109	2.224842	3.097729	4.719923	1.000000
27	0.000030	0.000030	0.000040	1.977429	2.778977	4.214629	1.000000
28	-0.000000	0.000030	0.000025	1.720879	2.442170	3.686040	1.000000
[Mid1.L]
# Tx<tab>Ty<tab>Tz<tab>Rx<tab>Ry<tab>Rz<tab>BoneScaleFactor<CR>
25	-0.000060	-0.000030	0.000022	1.678508	7.277618	-4.767091	1.000000
26	0.000000	0.000001	0.000044	1.551911	6.622013	-4.347732	1.000000
27	-0.000000	0.000029	0.000016	1.410385	5.916333	-3.894575	1.000000
28	0.000000	0.000001	-0.000046	1.256456	5.176948	-3.417537	1.000000
[Mid2.L]
# Tx<tab>Ty<tab>Tz<tab>Rx<tab>Ry<tab>Rz<tab>BoneScaleFactor<CR>
25	0.000000	0.000060	-0.000066	0.000004	7.142338	-0.000000	1.000000
26	0.000000	0.000060	-0.000066	0.000005	6.505108	-0.000000	1.000000
27	-0.000030	0.000060	0.000066	0.000001	5.818259	0.000001	1.000000
28	0.000030	0.000060	0.000053	0.000002	5.097377	0.000001	1.000000
[Rin1.L]
# Tx<tab>Ty<tab>Tz<tab>Rx<tab>Ry<tab>Rz<tab>BoneScaleFactor<CR>
25	-0.000119	-0.000001	0.000022	-0.406431	-2.055523	0.920674	1.000000
26	-0.000060	-0.000003	0.000074	-0.369023	-1.872207	0.837650	1.000000
27	-0.000060	0.000003	0.000075	-0.328679	-1.674509	0.748471	1.000000
28	-0.000060	-0.000003	0.000044	-0.286334	-1.466928	0.655216	1.000000
[Rin2.L]
# Tx<tab>Ty<tab>Tz<tab>Rx<tab>Ry<tab>Rz<tab>BoneScaleFactor<CR>
25	-0.000030	0.000030	-0.000006	0.000001	-2.046489	-0.000000	1.000000
26	-0.000030	0.000000	-0.000063	-0.000001	-1.863791	-0.000000	1.000000
27	0.000030	-0.000000	-0.000054	0.000003	-1.666880	0.000001	1.000000
28	-0.000015	-0.000030	-0.000009	0.000003	-1.460230	0.000001	1.000000
[Pin1.L]
# Tx<tab>Ty<tab>Tz<tab>Rx<tab>Ry<tab>Rz<tab>BoneScaleFactor<CR>
25	-0.000060	-0.000003	0.000052	-1.940068	-8.964544	3.999298	1.000000
26	-0.000000	-0.000005	0.000014	-1.740122	-8.169385	3.626157	1.000000
27	0.000000	0.000005	0.000015	-1.530719	-7.310740	3.227895	1.000000
28	-0.000000	-0.000005	0.000044	-1.317418	-6.408040	2.814261	1.000000
[Pin2.L]
# Tx<tab>Ty<tab>Tz<tab>Rx<tab>Ry<tab>Rz<tab>BoneScaleFactor<CR>
25	-0.000045	0.000030	-0.000008	0.000004	-9.028603	0.000001	1.000000
26	-0.000000	0.000000	-0.000003	0.000002	-8.226005	0.000000	1.000000
27	-0.000030	0.000030	0.000005	-0.000002	-7.360080	-0.000002	1.000000
28	-0.000000	0.000000	-0.000005	0.000001	-6.450473	-0.000001	1.000000
[Ind1.L]
# Tx<tab>Ty<tab>Tz<tab>Rx<tab>Ry<tab>Rz<tab>BoneScaleFactor<CR>
25	-0.000059	0.000002	-0.000008	1.435464	7.007651	-4.669078	1.000000
26	-0.000059	0.000004	-0.000016	1.329349	6.377108	-4.257117	1.000000
27	-0.000000	-0.000004	0.000016	1.210159	5.698263	-3.812217	1.000000
28	0.000000	0.000004	0.000014	1.079951	4.986805	-3.344170	1.000000
[Ind2.L]
# Tx<tab>Ty<tab>Tz<tab>Rx<tab>Ry<tab>Rz<tab>BoneScaleFactor<CR>
25	0.000030	-0.000060	-0.000010	-0.000003	6.902384	-0.000001	1.000000
26	0.000015	-0.000060	-0.000070	0.000000	6.282369	0.000000	1.000000
27	0.000030	-0.000060	0.000003	0.000001	5.614996	0.000000	1.000000
28	0.000000	-0.000060	0.000050	0.000004	4.915549	0.000001	1.000000
[Thu1.L]
# Tx<tab>Ty<tab>Tz<tab>Rx<tab>Ry<tab>Rz<tab>BoneScaleFactor<CR>
25	-0.000059	0.000002	-0.000004	-0.000003	-0.000002	-0.000000	1.000000
26	0.000001	0.000004	-0.000008	-0.000003	-0.000004	-0.000001	1.000000
27	-0.000001	0.000025	-0.000051	-0.000003	-0.000002	-0.000000	1.000000
28	-0.000059	0.000064	-0.000068	0.000000	-0.000003	-0.000003	1.000000
[Thu2.L]
# Tx<tab>Ty<tab>Tz<tab>Rx<tab>Ry<tab>Rz<tab>BoneScaleFactor<CR>
25	0.000060	-0.000119	0.000005	-0.000003	0.000001	0.000000	1.000000
26	0.000000	-0.000000	0.000005	-0.000003	0.000000	0.000001	1.000000
27	0.000060	-0.000060	0.000005	-0.000003	-0.000001	0.000000	1.000000
28	0.000060	-0.000000	-0.000008	0.000001	-0.000000	0.000003	1.000000
[Shoulder.R.]
# Tx<tab>Ty<tab>Tz<tab>Rx<tab>Ry<tab>Rz<tab>BoneScaleFactor<CR>
25	0.000004	-0.000002	0.000000	-0.000000	-0.000005	0.000000	1.000000
26	0.000000	-0.000004	0.000000	-0.000007	-0.000004	0.000001	1.000000
27	0.000000	-0.000004	0.000000	-0.000000	-0.000002	-0.000001	1.000000
28	0.000007	-0.000002	0.000000	-0.000000	0.000000	-0.000000	1.000000
[UpArm.R.]
# Tx<tab>Ty<tab>Tz<tab>Rx<tab>Ry<tab>Rz<tab>BoneScaleFactor<CR>
25	0.000015	-0.000119	0.000030	-2.123420	0.002931	-0.029052	1.000000
26	0.000015	-0.000118	0.000017	-1.933706	0.002701	-0.026429	1.000000
27	0.000022	-0.000118	-0.000043	-1.729249	0.002447	-0.023613	1.000000
28	0.000015	-0.000119	0.000015	-1.514710	0.002179	-0.020672	1.000000
[LowArm.R.]
# Tx<tab>Ty<tab>Tz<tab>Rx<tab>Ry<tab>Rz<tab>BoneScaleFactor<CR>
25	0.000002	0.000060	0.000000	0.015089	2.419774	1.130759	1.000000
26	0.000002	0.000000	0.000034	0.011844	2.203605	1.029644	1.000000
27	0.000005	0.000000	-0.000051	0.008763	1.970633	0.920699	1.000000
28	0.000004	0.000000	-0.000119	0.005976	1.726160	0.806412	1.000000
[Hand.R.]
# Tx<tab>Ty<tab>Tz<tab>Rx<tab>Ry<tab>Rz<tab>BoneScaleFactor<CR>
25	0.000000	0.000030	-0.000025	-3.329206	3.338851	-7.196873	1.000000
26	0.000000	0.000030	-0.000084	-3.014783	3.057927	-6.545305	1.000000
27	0.000000	0.000030	-0.000050	-2.679550	2.751126	-5.844822	1.000000
28	-0.000030	-0.000030	0.000000	-2.331793	2.424738	-5.111796	1.000000
[Mid1.R]
# Tx<tab>Ty<tab>Tz<tab>Rx<tab>Ry<tab>Rz<tab>BoneScaleFactor<CR>
25	-0.000060	0.000001	0.000016	-0.559670	6.217273	2.579479	1.000000
26	-0.000060	0.000030	-0.000044	-0.520613	5.660864	2.350618	1.000000
27	-0.000060	0.000000	0.000000	-0.476132	5.061305	2.103730	1.000000
28	-0.000000	0.000031	0.000084	-0.426910	4.432311	1.844322	1.000000
[Mid2.R]
# Tx<tab>Ty<tab>Tz<tab>Rx<tab>Ry<tab>Rz<tab>BoneScaleFactor<CR>
25	0.000000	0.000000	-0.000116	-0.000002	6.208417	0.000000	1.000000
26	-0.000030	0.000000	-0.000056	-0.000004	5.652483	-0.000000	1.000000
27	0.000000	0.000000	0.000060	0.000000	5.053601	0.000001	1.000000
28	-0.000060	-0.000060	0.000000	-0.000002	4.425467	0.000000	1.000000
[Rin1.R]
# Tx<tab>Ty<tab>Tz<tab>Rx<tab>Ry<tab>Rz<tab>BoneScaleFactor<CR>
25	0.000000	-0.000003	0.000015	0.777040	-5.267102	-1.869950	1.000000
26	0.000000	0.000027	0.000015	0.700556	-4.797583	-1.699409	1.000000
27	-0.000060	-0.000030	0.000060	0.619715	-4.291270	-1.516432	1.000000
28	0.000000	0.000026	0.000083	0.536565	-3.759697	-1.325367	1.000000
[Rin2.R]
# Tx<tab>Ty<tab>Tz<tab>Rx<tab>Ry<tab>Rz<tab>BoneScaleFactor<CR>
25	-0.000030	0.000000	0.000003	0.000001	-5.288909	-0.000000	1.000000
26	0.000000	0.000030	0.000063	-0.000001	-4.817136	-0.000001	1.000000
27	-0.000030	0.000000	0.000063	0.000001	-4.308516	-0.000001	1.000000
28	-0.000045	0.000000	0.000006	0.000001	-3.774627	0.000001	1.000000
[Pin1.R]
# Tx<tab>Ty<tab>Tz<tab>Rx<tab>Ry<tab>Rz<tab>BoneScaleFactor<CR>
25	-0.000059	-0.000005	0.000015	-0.586152	6.647604	2.673027	1.000000
26	0.000000	-0.000005	0.000015	-0.545899	6.052676	2.435936	1.000000
27	-0.000060	0.000000	0.000000	-0.499871	5.411594	2.180177	1.000000
28	0.000000	-0.000008	0.000083	-0.448756	4.739028	1.911430	1.000000
[Pin2.R]
# Tx<tab>Ty<tab>Tz<tab>Rx<tab>Ry<tab>Rz<tab>BoneScaleFactor<CR>
25	-0.000015	-0.000030	0.000062	-0.000001	6.643407	0.000001	1.000000
26	-0.000015	0.000000	0.000000	0.000001	6.048261	-0.000001	1.000000
27	-0.000030	-0.000060	0.000000	-0.000000	5.407191	-0.000000	1.000000
28	-0.000030	-0.000030	0.000003	0.000001	4.734854	-0.000001	1.000000
[Ind1.R.]
# Tx<tab>Ty<tab>Tz<tab>Rx<tab>Ry<tab>Rz<tab>BoneScaleFactor<CR>
25	-0.000000	0.000004	0.000016	-0.440797	4.142356	1.557384	1.000000
26	-0.000000	0.000004	0.000016	-0.405816	3.771794	1.419318	1.000000
27	0.000000	0.000030	-0.000060	-0.367161	3.372511	1.270318	1.000000
28	-0.000000	0.000035	0.000083	-0.325574	2.953640	1.113716	1.000000
[Ind2.R.]
# Tx<tab>Ty<tab>Tz<tab>Rx<tab>Ry<tab>Rz<tab>BoneScaleFactor<CR>
25	-0.000000	-0.000000	0.000010	0.000001	4.142728	0.000000	1.000000
26	0.000045	0.000030	0.000007	0.000000	3.772030	-0.000000	1.000000
27	0.000015	0.000030	0.000003	-0.000002	3.372657	-0.000001	1.000000
28	0.000015	0.000030	0.000003	0.000001	2.953720	0.000001	1.000000
[Thu1.R.]
# Tx<tab>Ty<tab>Tz<tab>Rx<tab>Ry<tab>Rz<tab>BoneScaleFactor<CR>
25	-0.000060	0.000004	-0.000051	0.000000	0.000001	0.000000	1.000000
26	-0.000001	0.000034	0.000008	0.000007	0.000002	0.000004	1.000000
27	0.000000	-0.000030	0.000000	0.000000	0.000002	-0.000001	1.000000
28	-0.000001	0.000007	0.000072	0.000000	0.000001	-0.000002	1.000000
[Thu2.R.]
# Tx<tab>Ty<tab>Tz<tab>Rx<tab>Ry<tab>Rz<tab>BoneScaleFactor<CR>
25	-0.000119	0.000030	0.000047	-0.000001	-0.000002	-0.000000	1.000000
26	-0.000060	-0.000000	0.000032	0.000000	-0.000001	0.000001	1.000000
27	-0.000060	0.000030	0.000000	-0.000001	-0.000002	-0.000002	1.000000
28	-0.000119	-0.000000	0.000003	0.000001	-0.000002	0.000001	1.000000
[UpLeg.L]
# Tx<tab>Ty<tab>Tz<tab>Rx<tab>Ry<tab>Rz<tab>BoneScaleFactor<CR>
25	0.000000	0.000000	0.000000	0.475571	2.239694	0.061741	1.000000
26	0.000001	0.000000	0.000000	0.432439	2.022724	0.055515	1.000000
27	0.000001	0.000000	0.000000	0.386098	1.805797	0.049076	1.000000
28	0.000001	0.000007	0.000000	0.337608	1.580575	0.042492	1.000000
[LowLeg.L]
# Tx<tab>Ty<tab>Tz<tab>Rx<tab>Ry<tab>Rz<tab>BoneScaleFactor<CR>
25	-0.000030	0.000000	-0.000033	-0.804163	-2.030423	-0.048002	1.000000
26	0.000000	-0.000015	0.000089	-0.731321	-1.834421	-0.045682	1.000000
27	0.000000	-0.000000	0.000153	-0.653030	-1.626600	-0.042704	1.000000
28	0.000000	-0.000000	0.000093	-0.571089	-1.412125	-0.039055	1.000000
[Foot.L]
# Tx<tab>Ty<tab>Tz<tab>Rx<tab>Ry<tab>Rz<tab>BoneScaleFactor<CR>
25	-0.000000	-0.000015	-0.000134	-0.250695	0.096343	-0.319479	1.000000
26	0.000000	-0.000015	0.000000	-0.228623	0.093859	-0.291315	1.000000
27	0.000000	-0.000015	-0.000023	-0.204744	0.091751	-0.260857	1.000000
28	0.000007	-0.000015	-0.000111	-0.179594	0.089910	-0.228786	1.000000
[UpLeg.R.]
# Tx<tab>Ty<tab>Tz<tab>Rx<tab>Ry<tab>Rz<tab>BoneScaleFactor<CR>
25	0.000000	0.000000	0.000000	-0.298198	3.071947	-0.017400	1.000000
26	0.000001	0.000000	0.000000	-0.269237	2.785735	-0.015427	1.000000
27	0.000001	0.000000	0.000000	-0.238639	2.480111	-0.013403	1.000000
28	0.000001	0.000000	0.000000	-0.207146	2.162354	-0.011398	1.000000
[LowLeg.R.]
# Tx<tab>Ty<tab>Tz<tab>Rx<tab>Ry<tab>Rz<tab>BoneScaleFactor<CR>
25	-0.000015	0.000015	0.000030	0.739275	-3.696176	-0.012721	1.000000
26	0.000000	0.000015	-0.000060	0.669478	-3.342142	-0.009110	1.000000
27	0.000000	0.000015	0.000000	0.595181	-2.966299	-0.005827	1.000000
28	0.000015	0.000015	0.000000	0.518169	-2.577838	-0.003046	1.000000
[Foot.R.]
# Tx<tab>Ty<tab>Tz<tab>Rx<tab>Ry<tab>Rz<tab>BoneScaleFactor<CR>
25	0.000015	-0.000015	-0.001110	-0.003653	-0.699223	-0.009459	0.999997
26	-0.000007	-0.000007	-0.001140	-0.002515	-0.622802	-0.006515	0.999997
27	0.000022	-0.000015	-0.001147	-0.001374	-0.546378	-0.003561	0.999997
28	-0.000007	-0.000000	-0.001110	-0.000235	-0.470389	-0.000610	0.999997
[EndOfFile]
